HIERARCHY
ROOT hip
{
  OFFSET 0 0 0
  CHANNELS 6 Xposition Yposition Zposition Zrotation Yrotation Xrotation
  JOINT abdomen
  {
    OFFSET 0 20.6881 -0.73152
    CHANNELS 3 Zrotation Xrotation Yrotation
    JOINT chest
    {
      OFFSET 0 11.7043 -0.48768
      CHANNELS 3 Zrotation Xrotation Yrotation
      JOINT neck
      {
        OFFSET 0 22.1894 -2.19456
        CHANNELS 3 Zrotation Xrotation Yrotation
        JOINT head
        {
          OFFSET -0.24384 7.07133 1.2192
          CHANNELS 3 Zrotation Xrotation Yrotation
          JOINT leftEye
          {
            OFFSET 4.14528 8.04674 8.04672
            CHANNELS 3 Zrotation Xrotation Yrotation
            End Site
            {
              OFFSET 1 0 0
            }
          }
          JOINT rightEye
          {
            OFFSET -3.6576 8.04674 8.04672
            CHANNELS 3 Zrotation Xrotation Yrotation
            End Site
            {
              OFFSET 1 0 0
            }
          }
        }
      }
      JOINT rCollar
      {
        OFFSET -2.68224 19.2634 -4.8768
        CHANNELS 3 Zrotation Xrotation Yrotation
        JOINT rShldr
        {
          OFFSET -8.77824 -1.95073 1.46304
          CHANNELS 3 Zrotation Xrotation Yrotation
          JOINT rForeArm
          {
            OFFSET -28.1742 -1.7115 0.48768
            CHANNELS 3 Zrotation Xrotation Yrotation
            JOINT rHand
            {
              OFFSET -22.5879 0.773209 7.07136
              CHANNELS 3 Zrotation Xrotation Yrotation
              JOINT rThumb1
              {
                OFFSET -1.2192 -0.487915 3.41376
                CHANNELS 3 Zrotation Xrotation Yrotation
                JOINT rThumb2
                {
                  OFFSET -3.37035 -0.52449 3.41376
                  CHANNELS 3 Zrotation Xrotation Yrotation
                  End Site
                  {
                    OFFSET -1.78271 -1.18214 1.43049
                  }
                }
              }
              JOINT rIndex1
              {
                OFFSET -7.75947 0.938293 5.60832
                CHANNELS 3 Zrotation Xrotation Yrotation
                JOINT rIndex2
                {
                  OFFSET -2.54057 -0.884171 1.56538
                  CHANNELS 3 Zrotation Xrotation Yrotation
                  End Site
                  {
                    OFFSET -1.62519 -0.234802 1.16502
                  }
                }
              }
              JOINT rMid1
              {
                OFFSET -8.24714 1.18213 3.41376
                CHANNELS 3 Zrotation Xrotation Yrotation
                JOINT rMid2
                {
                  OFFSET -3.10165 -0.590103 1.0647
                  CHANNELS 3 Zrotation Xrotation Yrotation
                  End Site
                  {
                    OFFSET -2.48547 -0.328903 0.83742
                  }
                }
              }
              JOINT rRing1
              {
                OFFSET -8.82822 0.546677 1.51678
                CHANNELS 3 Zrotation Xrotation Yrotation
                JOINT rRing2
                {
                  OFFSET -2.60934 -0.819778 -0.0198488
                  CHANNELS 3 Zrotation Xrotation Yrotation
                  End Site
                  {
                    OFFSET -2.33842 -0.294052 0.168128
                  }
                }
              }
              JOINT rPinky1
              {
                OFFSET -8.27202 -0.0477905 -0.4584
                CHANNELS 3 Zrotation Xrotation Yrotation
                JOINT rPinky2
                {
                  OFFSET -1.82734 -0.647385 -0.700984
                  CHANNELS 3 Zrotation Xrotation Yrotation
                  End Site
                  {
                    OFFSET -1.69225 -0.51767 -0.607171
                  }
                }
              }
            }
          }
        }
      }
      JOINT lCollar
      {
        OFFSET 2.68224 19.2634 -4.8768
        CHANNELS 3 Zrotation Xrotation Yrotation
        JOINT lShldr
        {
          OFFSET 8.77824 -1.95073 1.46304
          CHANNELS 3 Zrotation Xrotation Yrotation
          JOINT lForeArm
          {
            OFFSET 28.1742 -1.7115 0.48768
            CHANNELS 3 Zrotation Xrotation Yrotation
            JOINT lHand
            {
              OFFSET 22.5879 0.773209 7.07136
              CHANNELS 3 Zrotation Xrotation Yrotation
              JOINT lThumb1
              {
                OFFSET 1.2192 -0.487915 3.41376
                CHANNELS 3 Zrotation Xrotation Yrotation
                JOINT lThumb2
                {
                  OFFSET 3.37035 -0.52449 3.41376
                  CHANNELS 3 Zrotation Xrotation Yrotation
                  End Site
                  {
                    OFFSET 1.78271 -1.18214 1.43049
                  }
                }
              }
              JOINT lIndex1
              {
                OFFSET 7.75947 0.938293 5.60832
                CHANNELS 3 Zrotation Xrotation Yrotation
                JOINT lIndex2
                {
                  OFFSET 2.54057 -0.884171 1.56538
                  CHANNELS 3 Zrotation Xrotation Yrotation
                  End Site
                  {
                    OFFSET 1.62519 -0.234802 1.16502
                  }
                }
              }
              JOINT lMid1
              {
                OFFSET 8.24714 1.18213 3.41376
                CHANNELS 3 Zrotation Xrotation Yrotation
                JOINT lMid2
                {
                  OFFSET 3.10165 -0.590103 1.0647
                  CHANNELS 3 Zrotation Xrotation Yrotation
                  End Site
                  {
                    OFFSET 2.48547 -0.328903 0.83742
                  }
                }
              }
              JOINT lRing1
              {
                OFFSET 8.82822 0.546677 1.51678
                CHANNELS 3 Zrotation Xrotation Yrotation
                JOINT lRing2
                {
                  OFFSET 2.60934 -0.819778 -0.0198488
                  CHANNELS 3 Zrotation Xrotation Yrotation
                  End Site
                  {
                    OFFSET 2.33842 -0.294052 0.168128
                  }
                }
              }
              JOINT lPinky1
              {
                OFFSET 8.27202 -0.0477905 -0.4584
                CHANNELS 3 Zrotation Xrotation Yrotation
                JOINT lPinky2
                {
                  OFFSET 1.82734 -0.647385 -0.700984
                  CHANNELS 3 Zrotation Xrotation Yrotation
                  End Site
                  {
                    OFFSET 1.69225 -0.51767 -0.607171
                  }
                }
              }
            }
          }
        }
      }
    }
  }
  JOINT rButtock
  {
    OFFSET -8.77824 4.35084 1.2192
    CHANNELS 3 Zrotation Xrotation Yrotation
    JOINT rThigh
    {
      OFFSET 0 -1.70687 -2.19456
      CHANNELS 3 Zrotation Xrotation Yrotation
      JOINT rShin
      {
        OFFSET 0 -36.8199 0.73152
        CHANNELS 3 Zrotation Xrotation Yrotation
        JOINT rFoot
        {
          OFFSET 0.73152 -45.1104 -5.12064
          CHANNELS 3 Zrotation Xrotation Yrotation
          End Site
          {
            OFFSET -1.1221 -3.69964 12.103
          }
        }
      }
    }
  }
  JOINT lButtock
  {
    OFFSET 8.77824 4.35084 1.2192
    CHANNELS 3 Zrotation Xrotation Yrotation
    JOINT lThigh
    {
      OFFSET 0 -1.70687 -2.19456
      CHANNELS 3 Zrotation Xrotation Yrotation
      JOINT lShin
      {
        OFFSET 0 -36.8199 0.73152
        CHANNELS 3 Zrotation Xrotation Yrotation
        JOINT lFoot
        {
          OFFSET -0.73152 -45.1104 -5.12064
          CHANNELS 3 Zrotation Xrotation Yrotation
          End Site
          {
            OFFSET 1.1221 -3.69964 12.103
          }
        }
      }
    }
  }
}
MOTION
Frames:	4
Frame Time:	0.00833333
-170.303 80.9331 9.17837 0.0 0.0 0.0 1.92991 -0.00172165 0.0523832 0.532087 0.00507149 0.0921235 -2.70768e-14 -1.59028e-15 9.93923e-17 -8.13588e-14 3.18055e-15 3.19919e-16 -0.0 0.0 0.0 -0.0 0.0 0.0 -1.34196e-14 1.82478e-17 1.98785e-16 -2.812e-13 3.04389e-16 7.95139e-16 -4.86938e-12 1.46683e-12 5.40694e-14 -5.5647e-11 -1.37591e-12 4.45278e-14 -1.31271e-10 1.97584e-13 2.44903e-13 -2.267e-10 3.30778e-13 4.27785e-13 -1.31268e-10 1.98785e-13 2.3218e-13 7.73091 5.47488 0.417314 -1.31272e-10 1.9799e-13 2.48083e-13 2.90554 0.965183 0.102902 -1.31258e-10 1.98089e-13 2.48083e-13 10.2786 0.731801 0.0259123 -1.31277e-10 1.9799e-13 2.60805e-13 2.22167 -0.733487 -0.20892 -1.35166e-14 1.92184e-17 -1.49089e-16 -2.85106e-13 4.16205e-16 -7.95139e-16 -4.85984e-12 -1.44238e-12 5.40694e-14 -5.56635e-11 1.53387e-12 6.99722e-14 -1.3128e-10 1.98765e-13 2.67167e-13 -2.26711e-10 3.435e-13 4.65951e-13 -1.31287e-10 2.0117e-13 2.79889e-13 -7.73091 5.47488 -0.417314 -1.31279e-10 1.98586e-13 2.60805e-13 -2.90554 0.965183 -0.102902 -1.31287e-10 1.99182e-13 2.6001e-13 -10.2786 0.731801 -0.0259123 -1.31272e-10 2.01965e-13 2.48083e-13 -2.22167 -0.733487 0.20892 -2.03217e-16 0.0 -3.88251e-19 1.95909 -7.26121 -0.191993 0.00412326 7.58537 0.107087 -0.520879 -0.330704 0.0522822 2.03217e-16 0.0 3.88251e-19 0.976298 -1.92613 0.000876184 0.00898994 -2.0786 0.0740874 0.488277 3.99808 -0.136797
-169.355 75.8966 1.45917 -53.4928 89.3106 -46.077 5.11597 7.18101 0.636468 1.83302 -1.64296 0.769862 0.784422 -3.97381 0.715682 -1.57903 -2.46871 0.902221 -0.0 0.0 0.0 -0.0 0.0 0.0 2.43412e-14 3.69002e-13 -1.34948e-14 17.5223 10.3439 0.809582 -13.6141 -10.695 14.1074 0.0189172 -3.09424 -0.432673 -2.20322e-10 5.86266e-11 -8.3073e-11 -3.79742e-10 1.01151e-10 -1.4463e-10 -2.20317e-10 5.86256e-11 -8.30829e-11 7.73091 5.47488 0.417314 -2.20321e-10 5.86241e-11 -8.30687e-11 2.90554 0.965183 0.102902 -2.2031e-10 5.86231e-11 -8.30684e-11 10.2786 0.731801 0.0259123 -2.20328e-10 5.86237e-11 -8.30589e-11 2.22167 -0.733487 -0.20892 2.42485e-14 3.69007e-13 -1.37872e-14 -21.8081 15.0227 3.06369 14.3431 -11.4987 -14.3493 -0.0020701 -1.30188 0.18298 -2.11365e-10 -1.69467e-11 1.74145e-10 -3.65659e-10 -2.91077e-11 2.99647e-10 -2.11374e-10 -1.69436e-11 1.74158e-10 -7.73091 5.47488 -0.417314 -2.11364e-10 -1.6945e-11 1.74141e-10 -2.90554 0.965183 -0.102902 -2.11373e-10 -1.69449e-11 1.7414e-10 -10.2786 0.731801 -0.0259123 -2.1136e-10 -1.69443e-11 1.74131e-10 -2.22167 -0.733487 0.20892 -2.03217e-16 0.0 -3.88251e-19 6.05991 -14.053 -0.584144 -0.263383 20.5407 0.0788644 -0.622788 -7.70805 -0.868726 2.03217e-16 0.0 3.88251e-19 4.34787 -5.44119 2.02908 10.7131 17.8199 3.44452 -16.1258 -42.8861 -19.4379
-165.345 75.7282 2.0254 -36.8293 86.4058 -31.3019 8.28138 14.7835 1.22556 3.2744 -3.35652 1.47476 1.72345 -8.14448 1.48501 -3.16782 -5.12005 1.86303 -0.0 0.0 0.0 -0.0 0.0 0.0 6.70083e-14 7.83388e-13 -2.84821e-14 35.7386 21.2795 1.53537 -22.2006 -19.7581 30.4601 -0.0127525 -6.42379 -0.902639 -3.05786e-10 1.22178e-10 -2.01074e-10 -5.26308e-10 2.10792e-10 -3.49705e-10 -3.05779e-10 1.22174e-10 -2.01081e-10 7.73091 5.47488 0.417314 -3.05784e-10 1.22172e-10 -2.01069e-10 2.90554 0.965183 0.102902 -3.05775e-10 1.2217e-10 -2.01068e-10 10.2786 0.731801 0.0259123 -3.05793e-10 1.22171e-10 -2.01062e-10 2.22167 -0.733487 -0.20892 6.6921e-14 7.83399e-13 -2.87151e-14 -46.862 30.7734 6.92546 23.1611 -21.2217 -31.2514 0.00558142 -2.58302 0.36349 -2.97813e-10 -2.96699e-11 3.90821e-10 -5.15913e-10 -5.08658e-11 6.72685e-10 -2.97825e-10 -2.96657e-11 3.90834e-10 -7.73091 5.47488 -0.417314 -2.97812e-10 -2.96659e-11 3.90818e-10 -2.90554 0.965183 -0.102902 -2.97822e-10 -2.96663e-11 3.90818e-10 -10.2786 0.731801 -0.0259123 -2.97811e-10 -2.96682e-11 3.90811e-10 -2.22167 -0.733487 0.20892 -2.03217e-16 0.0 -3.88251e-19 10.2606 -21.4234 -1.04394 -0.552643 34.2849 0.0238379 -0.983194 -15.4104 -1.89916 2.03217e-16 0.0 3.88251e-19 8.1312 -8.88675 4.12489 19.283 38.7151 8.78869 -107.642 -59.9823 -100.105
-162.303 74.9895 2.54321 -54.1818 85.3684 -48.5694 11.0203 21.5367 1.92404 4.55221 -4.93605 2.1323 2.65659 -11.9139 2.18906 -4.50227 -7.39876 2.72687 -0.0 0.0 0.0 -0.0 0.0 0.0 9.98627e-14 1.10697e-12 -4.08821e-14 51.566 31.0048 2.78783 -25.4945 -24.0854 46.6223 -0.0850164 -9.28059 -1.31332 -3.98423e-10 1.75485e-10 -2.49709e-10 -6.85825e-10 3.02792e-10 -4.34746e-10 -3.98415e-10 1.75479e-10 -2.49713e-10 7.73091 5.47488 0.417314 -3.98419e-10 1.75476e-10 -2.49702e-10 2.90554 0.965183 0.102902 -3.98413e-10 1.75473e-10 -2.49701e-10 10.2786 0.731801 0.0259123 -3.9843e-10 1.75475e-10 -2.49698e-10 2.22167 -0.733487 -0.20892 9.97787e-14 1.10698e-12 -4.10634e-14 -71.8509 44.4444 12.4823 26.1387 -25.5449 -48.074 0.0187848 -3.90547 0.550076 -3.71535e-10 -5.12378e-11 5.21901e-10 -6.43554e-10 -8.80102e-11 8.98009e-10 -3.7155e-10 -5.12331e-11 5.21915e-10 -7.73091 5.47488 -0.417314 -3.71534e-10 -5.12322e-11 5.21901e-10 -2.90554 0.965183 -0.102902 -3.71545e-10 -5.12331e-11 5.21901e-10 -10.2786 0.731801 -0.0259123 -3.71536e-10 -5.12369e-11 5.21896e-10 -2.22167 -0.733487 0.20892 -2.03217e-16 0.0 -3.88251e-19 13.9479 -27.6308 -1.48891 -0.753386 46.4514 0.0134279 -1.58704 -22.4393 -2.9075 2.03217e-16 0.0 3.88251e-19 11.8519 -12.4107 6.20358 20.3802 56.4366 17.7234 -160.93 -27.399 -131.006
